<svg width="996" height="158" viewBox="0 0 996 158" fill="none" xmlns="http://www.w3.org/2000/svg">
<g clip-path="url(#clip0_458_2)">
<path d="M252 13.9999V19.7699H301.5C304.8 19.7699 309.75 19.7699 313 23.0699C316.25 26.3699 316.3 31.3199 316.3 34.5699V84.0699C316.3 87.3699 316.3 92.3199 313 95.5699C309.7 98.8699 304.75 98.8699 301.5 98.8699H277.6C273.48 98.8699 268.11 98.8699 266.1 94.3299C264.04 89.7899 266.924 85.6699 269.4 82.3299L301.6 39.4299H252.1L232.3 65.8299C228.98 70.2499 226.11 74.0799 226.11 79.0299C226.11 83.9799 228.78 87.5399 232.3 92.2299L237.25 98.8299C242.2 105.43 247.15 112.03 253.75 115.33C260.35 118.63 268.15 118.63 278.95 118.63H300.35C312.75 118.63 331.25 118.63 343.65 106.23C356.05 93.8299 356.05 75.7299 356.05 69.1299V49.3299C356.05 42.7299 356.05 24.6299 343.65 12.2299C331.25 -0.170119 312.75 -0.170119 300.35 -0.170119L266.15 -0.181119C262.85 -0.182119 258.73 -0.181119 255.45 3.11888C252.15 6.41888 252.15 10.5389 252.15 13.8189" fill="#C4151C"/>
<path d="M193 39.6001H242L183 119H134L193 39.6001Z" fill="#C4151C"/>
<path d="M0 53.6001C0 50.3001 0 46.1801 3.3 42.9001C6.6 39.6201 10.72 39.6001 14 39.6001H96.9C107.6 39.6001 115.5 39.6001 122.1 42.9001C128.7 46.2001 133.6 52.8001 138.6 59.4001L143.55 66.0001C147.06 70.6801 149.74 74.2501 149.74 79.2001C149.74 84.1501 146.87 87.9801 143.55 92.4001L123.75 118.8H74.25L106.45 75.9001C108.92 72.6001 111.81 68.4801 109.75 63.9001C107.69 59.3601 102.33 59.3601 98.25 59.3601H59.45V158.36H19.85V59.3601H0.05V53.5801" fill="#C4151C"/>
<path d="M403 105C400.03 109.04 397 113.02 394.03 117V119.26H402.4C406.5 113.8 408.64 110.95 408.64 107.66H416.84V119.26H424.68V107.66H432.88C432.88 110.93 435.02 113.78 439.12 119.26H447.49V117L438.46 105C446.06 99.3 446.06 99.3 446.06 91.8V89.31H437.51V91.8C437.51 100.89 437.51 100.89 428.6 100.89H424.68V89.29H416.84V100.89H412.92C404.01 100.89 404.01 100.89 404.01 91.8V89.31H395.46V91.8C395.46 99.28 395.46 99.28 403 105Z" fill="white"/>
<path fill-rule="evenodd" clip-rule="evenodd" d="M463 101C463 94.4099 463 94.4099 470.3 94.4099C477.6 94.4099 477.6 94.4099 477.6 101H463ZM463 106.34H470.3C477.96 106.28 480.22 106.4 482.8 105.805L485.83 105.093V102.183C485.83 97.2529 485.83 87.9829 471.73 87.9829H468.88C454.78 87.9829 454.78 97.2429 454.78 102.283V105.133C454.78 110.473 454.898 119.433 470.38 119.433C472.7 119.433 477.92 119.433 483.58 118.013V111.603H481.98L476.28 113.023H470.22C462.92 113.021 462.92 113.021 462.92 106.433L463 106.34Z" fill="white"/>
<path d="M499 88.8003C499 93.3103 498.644 106.9 491.52 116.4V118.72H500.25C505.42 111.83 505.42 102.82 505.42 95.4203H517.72V118.72H525.56V88.8203H499.06" fill="white"/>
<path fill-rule="evenodd" clip-rule="evenodd" d="M543 101C543 94.4099 543 94.4099 550.31 94.4099C557.61 94.4099 557.61 94.4099 557.61 101H543.01M543.01 106.34H550.32C557.98 106.28 560.24 106.4 562.82 105.805L565.85 105.093V102.183C565.85 97.2529 565.85 87.9829 551.75 87.9829H548.9C534.8 87.9829 534.8 97.2429 534.8 102.283V105.133C534.8 110.473 534.918 119.433 550.4 119.433C552.72 119.433 557.94 119.433 563.6 118.013V111.603H562L556.3 113.023H550.24C542.94 113.021 542.94 113.021 542.94 106.433L543.01 106.34Z" fill="white"/>
<path d="M595 104V103.109C601.06 101.569 601.06 97.8291 601.06 96.3991C601.06 93.5491 601.06 87.8491 586.66 87.8491C584.52 87.8491 579.53 87.8491 573.86 89.2791V95.6891H575.46L581.16 94.2591H587.75C592.32 94.2591 592.56 94.2591 592.56 97.5791C592.56 100.849 592.56 100.849 587.75 100.849H581.16V106.189H587.75C592.32 106.189 592.56 106.189 592.56 109.459C592.56 112.789 592.56 112.789 587.75 112.789H581.16L575.46 111.359H573.86V117.769C579.56 119.189 584.56 119.189 586.66 119.189C601.06 119.189 601.06 113.489 601.06 110.639C601.06 109.219 601.06 105.479 595 103.989" fill="white"/>
<path d="M634 88.8003V100H618V88.8003H610V119H618V107H634V119H641V88.8003H634Z" fill="white"/>
<path fill-rule="evenodd" clip-rule="evenodd" d="M666 104C672.24 104 672.24 104 672.24 108.63C672.24 113.26 672.24 113.26 666 113.26H659.76V104H666ZM694 89.0001H686.16V118.9H694V89.0001ZM667.1 118.9C676.54 118.9 680.5 116.82 680.5 108.7C680.5 104.25 680.5 97.8001 668.2 97.8001C666.42 97.8001 663.39 97.9801 659.83 98.8701V88.8901H651.99V118.79H667.09L667.1 118.9Z" fill="white"/>
<path fill-rule="evenodd" clip-rule="evenodd" d="M712 101C712 94.4099 712 94.4099 719.3 94.4099C726.6 94.4099 726.6 94.4099 726.6 101H712ZM712 106.34H719.3C726.96 106.28 729.22 106.4 731.8 105.805L734.83 105.093V102.183C734.83 97.2529 734.83 87.9829 720.73 87.9829H717.88C703.78 87.9829 703.78 97.2429 703.78 102.283V105.133C703.78 110.473 703.899 119.433 719.38 119.433C721.7 119.433 726.92 119.433 732.58 118.013V111.603H730.98L725.28 113.023H719.22C711.92 113.021 711.92 113.021 711.92 106.433L712 106.34Z" fill="white"/>
<path fill-rule="evenodd" clip-rule="evenodd" d="M767 103C767 94.9799 767 95.1599 777.6 95.1599C779.03 95.1599 780.99 95.3369 783.36 95.8719V108.672L775.76 110.572C766.97 110.573 766.97 110.573 766.97 102.972M762.34 123.672V130.442C768.04 131.872 772.64 131.872 774.44 131.872C790.64 131.872 791.14 124.862 791.14 116.872V89.0719H788.58L784.78 91.9219C782.17 88.5319 775.81 88.4219 773.78 88.4219C758.68 88.4219 758.68 97.9219 758.68 102.222V103.652C758.68 108.642 758.68 116.852 771.48 116.852C775.34 116.852 779.91 115.782 783.28 113.292V115.782C783.28 124.982 783.102 125.042 773.66 125.042H769.56L763.86 123.612H762.26L762.34 123.672Z" fill="white"/>
<path fill-rule="evenodd" clip-rule="evenodd" d="M815 88.1001C799.9 88.1001 799.9 97.0101 799.9 102.4V105.25C799.9 110.59 799.9 119.55 815 119.55H817.85C832.95 119.55 832.95 110.64 832.95 105.25V102.4C832.95 97.0601 832.95 88.1001 817.85 88.1001H815ZM816.42 94.6901C824.79 94.6901 824.79 94.6901 824.79 103.78C824.79 112.87 824.79 112.87 816.42 112.87C808.05 112.87 808.05 112.87 808.05 103.78C808.05 94.6901 808.05 94.6901 816.42 94.6901Z" fill="white"/>
<path fill-rule="evenodd" clip-rule="evenodd" d="M866 104C866 112.91 866 112.91 857.27 112.91C855.13 112.91 852.4 112.91 849.61 112.197V97.1967L857.21 95.2967C866 95.2967 866 95.4147 866 103.967M841.8 88.9667V130.967H849.64V117.967C853.2 118.858 856.05 119.567 860.34 119.567C874.24 119.567 874.24 109.367 874.24 105.267V102.417C874.24 97.4267 874.24 88.1167 861.24 88.1167C854.59 88.1167 850.74 91.0267 848.64 92.6267L845.79 88.8267H841.87L841.8 88.9667Z" fill="white"/>
<path fill-rule="evenodd" clip-rule="evenodd" d="M898 88.1001C882.9 88.1001 882.9 97.0101 882.9 102.4V105.25C882.9 110.59 882.9 119.55 898 119.55H900.85C915.95 119.55 915.95 110.64 915.95 105.25V102.4C915.95 97.0601 915.95 88.1001 900.85 88.1001H898ZM899.42 94.6901C907.79 94.6901 907.79 94.6901 907.79 103.78C907.79 112.87 907.79 112.87 899.42 112.87C891.05 112.87 891.05 112.87 891.05 103.78C891.05 94.6901 891.05 94.6901 899.42 94.6901Z" fill="white"/>
<path d="M939 88.1001C936.15 88.1001 932.41 88.1001 926.7 89.5301V95.9401H928.3L934 94.5201H941.3C945.22 94.5201 945.22 94.5201 945.22 96.7801C945.22 98.3201 945.22 98.8001 942.19 99.3301L935.06 101.11C930.96 102.12 925.26 103.66 925.26 109.84C925.26 113.94 925.26 119.46 939.66 119.46C942.51 119.46 946.25 119.46 951.96 118.04V111.63H950.36C947.98 112.283 945.73 112.82 944.84 113.06H937.36C933.44 113.06 933.44 113.06 933.44 110.8C933.44 109.44 933.44 109.14 935.1 108.66L939.08 107.59L943.59 106.46C947.69 105.45 953.39 103.97 953.39 97.7301C953.389 93.6301 953.389 88.1101 938.99 88.1101" fill="white"/>
<path d="M990 120L995.82 115.66C993.68 112.81 993.68 112.81 993.68 107.76V89.26H985.84V110.96L978.24 112.86C970.16 112.86 970.16 112.86 970.16 104.61V89.21H962.32V105.81C962.32 111.69 962.32 119.91 974.22 119.91C980.46 119.91 984.32 117 986.42 115.4L989.92 120.03" fill="white"/>
<path fill-rule="evenodd" clip-rule="evenodd" d="M396 17.3002V59.3002H404.55V47.7002H411.32C422.92 47.7002 432.02 47.7002 432.02 32.5002C432.02 17.2002 422.93 17.2002 411.32 17.2002H396.02M404.57 40.2002V24.7002H414.87C422.53 24.7002 422.89 24.7002 422.89 32.4802C422.89 40.0202 422.89 40.2002 414.87 40.2002H404.57Z" fill="white"/>
<path fill-rule="evenodd" clip-rule="evenodd" d="M454 28.7002C438.9 28.7002 438.9 37.6102 438.9 43.0002V45.8502C438.9 51.1902 438.9 60.1502 454 60.1502H456.85C471.95 60.1502 471.95 51.2402 471.95 45.8502V43.0002C471.95 37.6602 471.95 28.7002 456.85 28.7002H454ZM455.42 35.2902C463.79 35.2902 463.79 35.2902 463.79 44.3802C463.79 53.4702 463.79 53.4702 455.42 53.4702C447.05 53.4702 447.05 53.4702 447.05 44.3802C447.05 35.2902 447.05 35.2902 455.42 35.2902Z" fill="white"/>
<path d="M495 60.1003C497.14 60.1003 502.66 60.1003 508.4 58.6703V52.2603H506.8L501.04 53.6803H497.66C487.74 53.6803 487.74 53.6803 487.74 44.4203C487.74 35.1603 487.74 35.1603 495.04 35.1603C501.22 35.1603 501.22 35.1603 502.7 41.0403L509.83 39.2603C509.83 36.4103 509.83 28.7603 496.43 28.7603H493.58C479.48 28.7603 479.48 37.6703 479.48 43.0603V45.9103C479.48 51.2503 479.48 60.2103 494.98 60.2103" fill="white"/>
<path d="M533 60.1003C535.14 60.1003 540.66 60.1003 546.4 58.6703V52.2603H544.8L539.04 53.6803H535.66C525.74 53.6803 525.74 53.6803 525.74 44.4203C525.74 35.1603 525.74 35.1603 533.04 35.1603C539.22 35.1603 539.22 35.1603 540.7 41.0403L547.83 39.2603C547.83 36.4103 547.83 28.7603 534.43 28.7603H531.58C517.48 28.7603 517.48 37.6703 517.48 43.0603V45.9103C517.48 51.2503 517.48 60.2103 532.98 60.2103" fill="white"/>
<path d="M583 60.2002L588.82 55.8602C586.68 53.0102 586.68 53.0102 586.68 47.9602V29.4602H578.84V51.1602L571.24 53.0602C563.16 53.0602 563.16 53.0602 563.16 44.8102V29.4102H555.32V46.0102C555.32 51.8902 555.32 60.1102 567.22 60.1102C573.46 60.1102 577.32 57.2002 579.42 55.6002L582.92 60.2302" fill="white"/>
<path fill-rule="evenodd" clip-rule="evenodd" d="M611 18.8002C607.14 18.8002 607.14 18.8002 605.24 16.6602L601.8 19.3302C605.54 24.1402 607.44 24.5002 612.9 24.5002H614.21C619.61 24.5002 621.57 24.1432 625.21 19.3302L621.77 16.6602C619.93 18.8002 619.93 18.8002 616.01 18.8002H610.96M625.46 60.3002L631.28 55.9602C629.14 53.1102 629.14 53.1102 629.14 48.0602V29.5602H621.3V51.2602L613.7 53.1602C605.8 53.1602 605.62 53.1602 605.62 44.9102V29.5102H597.78V46.1102C597.78 51.9902 597.78 60.2102 609.68 60.2102C615.92 60.2102 619.78 57.3002 621.88 55.7002L625.38 60.3302L625.46 60.3002Z" fill="white"/>
<path d="M654 60.1003C656.14 60.1003 661.66 60.1003 667.4 58.6703V52.2603H665.8L660.04 53.6803H656.65C646.73 53.6803 646.73 53.6803 646.73 44.4203C646.73 35.1603 646.73 35.1603 654.03 35.1603C660.21 35.1603 660.21 35.1603 661.69 41.0403L668.82 39.2603C668.82 36.4103 668.82 28.7603 655.42 28.7603H652.57C638.47 28.7603 638.47 37.6703 638.47 43.0603V45.9103C638.471 51.2503 638.471 60.2103 653.97 60.2103" fill="white"/>
<path d="M678 29.5002V59.4002H685.84V47.8002H695.46C695.46 51.0702 697.6 53.9202 701.69 59.4002H710.06V57.1402L701.03 45.1402C708.63 39.4402 708.63 39.4402 708.63 31.9402V29.4502H700.08V31.9402C700.08 41.0302 700.08 41.0302 691.17 41.0302H685.83V29.4302H677.99" fill="white"/>
<path d="M746 60.2002L751.82 55.8602C749.68 53.0102 749.68 53.0102 749.68 47.9602V29.4602H741.84V51.1602L734.24 53.0602C726.16 53.0602 726.16 53.0602 726.16 44.8102V29.4102H718.32V46.0102C718.32 51.8902 718.32 60.1102 730.22 60.1102C736.46 60.1102 740.32 57.2002 742.42 55.6002L745.92 60.2302" fill="white"/>
<path fill-rule="evenodd" clip-rule="evenodd" d="M767 41.7001C767 35.1101 767 35.1101 774.31 35.1101C781.61 35.1101 781.61 35.1101 781.61 41.7001H767.01M767.01 47.0401H774.32C781.98 46.9801 784.24 47.1001 786.82 46.5051L789.85 45.7931V42.8831C789.85 37.9531 789.85 28.6831 775.75 28.6831H772.9C758.8 28.6831 758.8 37.9431 758.8 42.9831V45.8331C758.8 51.1731 758.919 60.1331 774.4 60.1331C776.72 60.1331 781.94 60.1331 787.6 58.7031V52.2931H786L780.3 53.7131H774.24C766.93 53.7121 766.93 53.7121 766.93 47.1231L767.01 47.0401Z" fill="white"/>
</g>
<defs>
<clipPath id="clip0_458_2">
<rect width="996" height="158" fill="white"/>
</clipPath>
</defs>
</svg>
